# xmcd CD database file generated by MAGIX-FreeDB-MP3_deluxe_17 v3.0beta1
#
# Track frame offsets:
#	150
#	17543
#	33171
#	51204
#	67226
#	86396
#	103414
#	120388
#	144232
#	161915
#	179941
#	205506
#	228646
#	253080
#	271827
#	290809
#	312412
#	330650
#
# Disc length: 4663
#
# Revision: 0
# Processed by: cddbd v1.5.2PL0 Copyright (c) Steve Scherf et al.
# Submitted via: MAGIX-FreeDB-MP3_deluxe_17 v3.0beta1
#
DISCID=0e123512
DTITLE=Air Supply - The Very Best of Air Supply
DYEAR=1995
DGENRE=Pop
TTITLE0=Lost In Love
TTITLE1=Every Woman In The World
TTITLE2=All Out Of Love
TTITLE3=Chances
TTITLE4=The One That You Love
TTITLE5=Here I Am (Just When I Thougth I Was Over You)
TTITLE6=I'll Never Get Enough Of You
TTITLE7=Sweet Dreams
TTITLE8=Even The Nights Are Better
TTITLE9=Two Less Lonely People In The World
TTITLE10=Making Love Out Of Nothing At All
TTITLE11=I Can Wait Forever
TTITLE12=The Power Of Love (You Are My Lady)
TTITLE13=Lonely Is The Night
TTITLE14=Someone
TTITLE15=Without You
TTITLE16=Goodbye
TTITLE17=Now And Forever
EXTD=30th Anniversary Collection - ALWAYS AND FOREVER
EXTT0=
EXTT1=
EXTT2=
EXTT3=
EXTT4=
EXTT5=
EXTT6=
EXTT7=
EXTT8=
EXTT9=
EXTT10=
EXTT11=
EXTT12=
EXTT13=
EXTT14=
EXTT15=
EXTT16=
EXTT17=
PLAYORDER=
